<?xml version="1.0" encoding="utf-8"?>
<!-- Generator: Adobe Illustrator 24.2.3, SVG Export Plug-In . SVG Version: 6.00 Build 0)  -->
<svg version="1.1" id="Layer_1" xmlns="http://www.w3.org/2000/svg" xmlns:xlink="http://www.w3.org/1999/xlink" x="0px" y="0px"
	 viewBox="0 0 32 32" style="enable-background:new 0 0 32 32;" xml:space="preserve">
<style type="text/css">
	.st0{fill:#353535;}
	.st1{fill:#FFFFFF;}
</style>
<g>
	<path class="st0" d="M32,16c0-8.8-7.2-16-16-16S0,7.2,0,16c0,7.8,5.6,14.3,13,15.7c0-2.7,0-7.7,0-12.1h-2.8v-5H13v-3.2
		c0-2.3,1.1-5.9,5.9-5.9l4.3,0v4.8c0,0-2.6,0-3.1,0c-0.5,0-1.2,0.3-1.2,1.4v2.9h4.4l-0.5,5h-3.9c0,4.4,0,9.5,0,12.1
		C26.3,30.4,32,23.9,32,16z"/>
	<path class="st1" d="M22.8,19.6l0.5-5h-4.4v-2.9c0-1.1,0.7-1.4,1.2-1.4c0.5,0,3.1,0,3.1,0V5.6l-4.3,0c-4.8,0-5.9,3.6-5.9,5.9v3.2
		h-2.8v5H13c0,4.4,0,9.4,0,12.1c1,0.2,2,0.3,3,0.3c1,0,1.9-0.1,2.9-0.3c0-2.7,0-7.8,0-12.1H22.8z"/>
</g>
</svg>
