<?xml version="1.0" encoding="utf-8"?>
<!-- Generator: Adobe Illustrator 24.2.3, SVG Export Plug-In . SVG Version: 6.00 Build 0)  -->
<svg version="1.1" id="Layer_1" xmlns="http://www.w3.org/2000/svg" xmlns:xlink="http://www.w3.org/1999/xlink" x="0px" y="0px"
	 viewBox="0 0 32 32" style="enable-background:new 0 0 32 32;" xml:space="preserve">
<style type="text/css">
	.st0{fill:#353535;}
	.st1{fill:#FFFFFF;}
</style>
<g>
	<g>
		<path class="st0" d="M16.2,32c0.1-0.9,0-1.9-0.5-2.7c-0.8-1.3-2.2-2.3-3.5-3.1c-1.5,0-3.2,0-4.6,0.5C6.8,26.9,6,27.4,5.4,28
			c2.8,2.5,6.5,4,10.6,4C16.1,32,16.2,32,16.2,32z"/>
		<path class="st0" d="M9.6,9.1C3.7,9.4,6,19.9,11,20C16.6,19.9,14.2,9,9.6,9.1z"/>
		<path class="st0" d="M32,16c0-8.8-7.2-16-16-16S0,7.2,0,16c0,4.1,1.6,7.9,4.1,10.7c2.1-1.1,4.7-1.4,7-1.6
			c-1.2-1.6-1.4-2.7-0.7-4.2C-0.9,21.5,1.5,7,11.9,7.9h7.6l-2.4,1.4h-2.4c2.3,1.5,3.2,4.9,2.3,7.4c-0.6,1.7-2.1,2.5-3.2,3.8
			c-1.6,2.7,2.7,3.8,3.7,5.9c1.2,2,1.3,3.9,0.6,5.5C26,30.7,32,24.1,32,16z"/>
		<path class="st1" d="M17.7,26.4c-1-2.1-5.3-3.2-3.7-5.9c1-1.3,2.6-2.1,3.2-3.8c1-2.5,0-5.9-2.3-7.4h2.4l2.4-1.4h-7.6
			C1.5,7-0.9,21.5,10.4,20.9c-0.6,1.5-0.4,2.6,0.7,4.2c-2.3,0.2-4.9,0.5-7,1.6C4.5,27.1,5,27.6,5.4,28c0.6-0.6,1.4-1.1,2.2-1.3
			c1.4-0.6,3.2-0.6,4.6-0.5c1.3,0.8,2.7,1.8,3.5,3.1c0.4,0.8,0.6,1.8,0.5,2.7c0.7,0,1.4-0.1,2-0.2C18.9,30.3,18.9,28.4,17.7,26.4z
			 M11,20C6,19.9,3.7,9.4,9.6,9.1C14.2,9,16.6,19.9,11,20z"/>
	</g>
	<polygon class="st1" points="30,12.4 30,14.6 25.6,14.6 25.6,19.1 23.3,19.1 23.3,14.6 18.8,14.6 18.8,12.4 23.3,12.4 23.3,7.9 
		25.6,7.9 25.6,12.4 	"/>
</g>
</svg>
