<?xml version="1.0" encoding="utf-8"?>
<!-- Generator: Adobe Illustrator 24.2.3, SVG Export Plug-In . SVG Version: 6.00 Build 0)  -->
<svg version="1.1" id="Layer_1" xmlns="http://www.w3.org/2000/svg" xmlns:xlink="http://www.w3.org/1999/xlink" x="0px" y="0px"
	 viewBox="0 0 32 32" style="enable-background:new 0 0 32 32;" xml:space="preserve">
<style type="text/css">
	.st0{fill:#353535;}
	.st1{fill:#FFFFFF;}
</style>
<circle class="st0" cx="16" cy="16" r="16"/>
<path class="st1" d="M28.5,9.4c-0.9,0.4-1.7,0.6-2.7,0.7c1-0.6,1.7-1.5,2.1-2.6c-0.9,0.6-1.9,0.9-3,1.2c-0.8-0.9-2.1-1.5-3.4-1.5
	c-2.6,0-4.8,2.1-4.8,4.8c0,0.4,0.1,0.7,0.1,1.1c-4-0.2-7.4-2.1-9.8-5c-0.4,0.7-0.6,1.5-0.6,2.4c0,1.7,0.9,3.1,2.1,4
	c-0.8,0-1.5-0.2-2.2-0.6v0.1c0,2.3,1.7,4.2,3.8,4.6c-0.4,0.1-0.8,0.1-1.2,0.1c-0.3,0-0.6,0-0.9-0.1c0.6,1.9,2.4,3.2,4.4,3.3
	c-1.6,1.3-3.7,2-5.9,2c-0.4,0-0.8,0-1.2-0.1c2.1,1.4,4.6,2.2,7.3,2.2c8.7,0,13.5-7.2,13.5-13.5c0-0.2,0-0.4,0-0.6
	C27,11.2,27.8,10.3,28.5,9.4z"/>
</svg>
