<?xml version="1.0" encoding="utf-8"?>
<!-- Generator: Adobe Illustrator 25.2.3, SVG Export Plug-In . SVG Version: 6.00 Build 0)  -->
<svg version="1.1" id="Layer_1" xmlns="http://www.w3.org/2000/svg" xmlns:xlink="http://www.w3.org/1999/xlink" x="0px" y="0px"
	 viewBox="0 0 500 125" style="enable-background:new 0 0 500 125;" xml:space="preserve">
<style type="text/css">
	.st0{fill:#FFFFFF;}
</style>
<g>
	<path class="st0" d="M25,90.5V58L0,11.2h20.5l8.1,19.1c2.5,5.8,4.1,10,6.1,15.2h0.2c1.8-4.9,3.6-9.5,6-15.2l8-19.1H69L42.9,57.4v33
		H25z"/>
	<path class="st0" d="M121,61.1c0,21-14.9,30.7-30.3,30.7c-16.8,0-29.7-11-29.7-29.6c0-18.6,12.2-30.5,30.7-30.5
		C109.3,31.7,121,43.8,121,61.1z M79.4,61.7c0,9.9,4.1,17.3,11.8,17.3c6.9,0,11.4-6.9,11.4-17.3c0-8.6-3.3-17.3-11.4-17.3
		C82.6,44.4,79.4,53.2,79.4,61.7z"/>
	<path class="st0" d="M186.3,72c0,7.5,0.2,13.6,0.5,18.5h-15.5l-0.8-8.1h-0.4c-2.2,3.5-7.6,9.4-18,9.4c-11.6,0-20.2-7.3-20.2-25V33
		h18v30.9c0,8.3,2.7,13.4,8.9,13.4c4.9,0,7.8-3.4,8.9-6.2c0.5-1.1,0.6-2.5,0.6-3.9V33h18V72z"/>
	<path class="st0" d="M200.7,51.9c0-8.5-0.2-14-0.5-18.9h15.4l0.6,10.6h0.5c2.9-8.3,10-11.9,15.5-11.9c1.6,0,2.5,0,3.8,0.2v16.8
		c-1.3-0.2-2.8-0.5-4.8-0.5c-6.6,0-11.1,3.5-12.2,9.1c-0.2,1.2-0.4,2.6-0.4,4v29.2h-17.9V51.9z"/>
	<path class="st0" d="M257.3,62.7l-9.8,27.7h-5.8l28.7-79.3h5.4l28.6,79.3h-5.8l-10-27.7H257.3z M286.9,58l-9.6-26.5
		c-1.9-5.5-2.9-9.5-4.1-14h-0.2c-1.2,4.6-2.5,8.7-4.1,13.8L259.1,58H286.9z"/>
	<path class="st0" d="M316.6,52c0-7.1-0.2-12.7-0.5-18h5.3l0.5,10.7h0.2c4-7.5,10.9-12,20.8-12c14.5,0,24.2,12,24.2,28.6
		c0,20.2-12,30.5-25.6,30.5c-8.1,0-15.3-3.6-19.2-10.5h-0.2v32.5h-5.5V52z M322.1,68.3c0,1.5,0.2,3.1,0.5,4.5
		c2.4,8.7,9.9,14.3,18.6,14.3c12.9,0,20.3-10.5,20.3-25.5c0-12.7-7.1-24.2-19.9-24.2c-8.2,0-16.2,5.8-18.7,15.1
		c-0.4,1.5-0.8,3.3-0.8,4.8V68.3z"/>
	<path class="st0" d="M381.6,52c0-7.1-0.2-12.7-0.5-18h5.3l0.5,10.7h0.2c4-7.5,10.9-12,20.8-12c14.5,0,24.2,12,24.2,28.6
		c0,20.2-12,30.5-25.6,30.5c-8.1,0-15.3-3.6-19.2-10.5h-0.2v32.5h-5.5V52z M387.1,68.3c0,1.5,0.2,3.1,0.5,4.5
		c2.4,8.7,9.9,14.3,18.6,14.3c12.9,0,20.3-10.5,20.3-25.5c0-12.7-7.1-24.2-19.9-24.2c-8.2,0-16.2,5.8-18.7,15.1
		c-0.4,1.5-0.8,3.3-0.8,4.8V68.3z"/>
	<path class="st0" d="M460.8,11.2v3.6H450v28.3h-4.2V14.9H435v-3.6H460.8z M495.5,43.2L494,21.5c-0.1-1.9-0.2-4.2-0.3-6.8h-0.2
		c-0.8,1.9-1.8,5.2-2.6,7.6l-7.4,20.5h-4.8l-7.5-21.1c-0.6-2-1.8-5.1-2.4-7h-0.2c0,2.1-0.1,4.3-0.2,6.8l-1.5,21.8h-4.2l2.6-32h6.2
		l7.5,20.5c0.9,2.4,1.5,4.6,2.2,6.7h0.2c0.7-2.2,1.5-4.8,2-6.5l7.5-20.7h6.3l2.8,32H495.5z"/>
</g>
</svg>
